Coordinates
version=1
nRows=16
nColumns=22
inDegrees=yes

Units are S.I. units (second, meters, Newtons, ...)
If the header above contains a line with 'inDegrees', this indicates whether rotational values are in degrees (yes) or radians (no).

endheader
time	pelvis_tilt	pelvis_list	pelvis_rotation	pelvis_tx	pelvis_ty	pelvis_tz	hip_flexion_r	hip_adduction_r	hip_rotation_r	knee_angle_r	ankle_angle_r	subtalar_angle_r	hip_flexion_l	hip_adduction_l	hip_rotation_l	knee_angle_l	ankle_angle_l	subtalar_angle_l	lumbar_extension	lumbar_bending	lumbar_rotation
      2.03000000	      3.74179114	      1.69816079	    145.55779221	     -0.40935704	      0.99810562	      0.63851188	     -1.45890608	     12.65142197	      3.50848849	    -15.04489252	     14.22979712	     -7.82690266	     28.44718378	     -4.54758106	      9.62200265	    -14.92537496	      5.58948006	     13.28667657	     -5.14258745	      1.02173501	      2.48446188
      2.04000000	      3.70765233	      1.58390322	    145.00287970	     -0.41578612	      0.99657472	      0.63264787	     -1.83202810	     12.55991361	      3.92177971	    -15.43399524	     14.72840174	     -7.81803712	     28.27178722	     -4.45321078	     10.05750337	    -13.29681363	      5.78523280	     13.32176888	     -5.15062317	      0.84580895	      2.46948331
      2.05000000	      3.68354522	      1.45831895	    144.43138137	     -0.42227101	      0.99500488	      0.62667530	     -2.18675833	     12.46232307	      4.33923192	    -15.84158674	     15.19255206	     -7.83662198	     28.10686422	     -4.38025064	     10.44894275	    -11.84953940	      5.99493538	     13.27935370	     -5.13004430	      0.66322927	      2.48499817
      2.06000000	      3.68351793	      1.33469256	    143.84981771	     -0.42881720	      0.99339401	      0.62059338	     -2.53112005	     12.38111442	      4.77764241	    -16.24615564	     15.63166217	     -7.87593954	     27.96973575	     -4.33863921	     10.80849756	    -10.61768781	      6.22920104	     13.19478692	     -5.07633404	      0.49807965	      2.50923504
      2.07000000	      3.63549174	      1.21158165	    143.22697779	     -0.43547944	      0.99188332	      0.61433297	     -2.93343239	     12.25860601	      5.20017506	    -16.64578500	     15.96872348	     -7.88880939	     27.77072044	     -4.29843024	     11.06650619	     -9.58397944	      6.50945401	     13.03060139	     -5.04655517	      0.29373627	      2.60209472
      2.08000000	      3.61899507	      1.09332128	    142.59903273	     -0.44223582	      0.99035561	      0.60796649	     -3.32879848	     12.15527976	      5.62974655	    -17.02921198	     16.27463310	     -7.90356188	     27.60410862	     -4.28206764	     11.30416265	     -8.78423155	      6.78801929	     12.88275579	     -4.97625422	      0.11867857	      2.69635975
      2.09000000	      3.64088597	      0.97033338	    141.95312713	     -0.44909465	      0.98881674	      0.60149687	     -3.70338537	     12.06240357	      6.06380476	    -17.40366283	     16.55070946	     -7.91867419	     27.47499429	     -4.28814177	     11.50679869	     -8.21574421	      7.04492371	     12.80326194	     -4.85145044	     -0.02722763	      2.81139631
      2.10000000	      3.63192225	      0.84517842	    141.27769661	     -0.45610224	      0.98739796	      0.59487316	     -4.12359792	     11.92880333	      6.47660104	    -17.76148278	     16.70909141	     -7.87151457	     27.29819338	     -4.28100836	     11.64656910	     -7.85185433	      7.31224871	     12.72403220	     -4.73199887	     -0.19548239	      2.97416699
      2.11000000	      3.66152246	      0.71753918	    140.59423513	     -0.46321582	      0.98599850	      0.58815556	     -4.52240409	     11.80552299	      6.90114682	    -18.11071451	     16.85561195	     -7.80767978	     27.14407384	     -4.28907236	     11.80153568	     -7.68914146	      7.52309337	     12.69947623	     -4.56189510	     -0.33091551	      3.12924911
      2.12000000	      3.68539587	      0.57557593	    139.89193908	     -0.47048317	      0.98470216	      0.58132379	     -4.92820492	     11.64432892	      7.31696010	    -18.45290483	     16.91223382	     -7.67231341	     26.96274976	     -4.27955218	     11.95319524	     -7.69407602	      7.69857428	     12.70490982	     -4.36767728	     -0.47483108	      3.31164329
      2.13000000	      3.71073803	      0.41924492	    139.18049448	     -0.47787116	      0.98351273	      0.57437567	     -5.32714179	     11.45437007	      7.73527546	    -18.79658806	     16.90091230	     -7.46115714	     26.76015249	     -4.25451246	     12.12608513	     -7.84165021	      7.79297128	     12.73147931	     -4.14555584	     -0.62735334	      3.49235278
      2.14000000	      3.72688944	      0.23818258	    138.46203482	     -0.48539732	      0.98246116	      0.56732765	     -5.71346462	     11.21825276	      8.15770108	    -19.14836956	     16.82082695	     -7.14740304	     26.52782048	     -4.19868530	     12.32169440	     -8.09691573	      7.77899691	     12.74600489	     -3.89520969	     -0.79888519	      3.66807506
      2.15000000	      3.71084056	      0.03048931	    137.76234785	     -0.49307533	      0.98158454	      0.56019019	     -6.09653662	     10.92063470	      8.55516699	    -19.51529185	     16.69696642	     -6.62921005	     26.25976564	     -4.08548025	     12.55922176	     -8.44501697	      7.66936865	     12.66532232	     -3.63564998	     -1.01263257	      3.80132234
      2.16000000	      3.68583973	     -0.22609996	    137.06701895	     -0.50083497	      0.98087968	      0.55297187	     -6.42655145	     10.56708258	      8.95505474	    -19.91378188	     16.47528518	     -6.09256730	     26.00323286	     -3.92324189	     12.81344770	     -8.86800742	      7.33417260	     12.46956497	     -3.33237133	     -1.27282339	      3.92592836
      2.17000000	      3.61498332	     -0.53439778	    136.38873088	     -0.50866488	      0.98040164	      0.54565235	     -6.71803836	     10.13577536	      9.33765607	    -20.35898536	     16.18076835	     -5.44316953	     25.74947519	     -3.68468378	     13.03790924	     -9.36172209	      6.83035021	     12.15634843	     -3.01475427	     -1.61609376	      4.00313202
      2.18000000	      3.49471880	     -0.89451436	    135.73817807	     -0.51656752	      0.98016932	      0.53827156	     -6.95915002	      9.62726788	      9.67992089	    -20.86553962	     15.80060155	     -4.71726106	     25.52736565	     -3.36195393	     13.20080499	     -9.94335867	      6.17905104	     11.80722741	     -2.68589291	     -2.04180180	      4.03057217
